# xmcd CD database file
#
# Track frame offsets:
#	150
#	11471
#	123326
#	151096
#	155733
#	166697
#	183547
#	193345
#	224063
#	230833
#	241317
#	265127
#
# Disc length: 3597 seconds
#
# Revision: 0
# Processed by: cddbd v1.5.2PL0 Copyright (c) Steve Scherf et al.
# Submitted via: CDex 1.51
#
DISCID=a50e0b0c
DTITLE=Bob Downes Open Music - It's a Mystery
DYEAR=2017
DGENRE=Jazz
TTITLE0=It's a Mystery (2002)
TTITLE1=Dream Journey (1970)
TTITLE2=Imminent Danger (1994)
TTITLE3=Predator (1998)
TTITLE4=Floating Shapes (1970)
TTITLE5=Night Fear (2004)
TTITLE6=You Leave me Breathless (2004)
TTITLE7=Barker (1971)
TTITLE8=Coming Together (2002)
TTITLE9=Spaced Out (1971)
TTITLE10=Surprise Encounters (1976)
TTITLE11=Bob Downes Open Music - Voodoo Man (2002)
EXTD=YEAR: 2017
EXTT0=
EXTT1=
EXTT2=
EXTT3=
EXTT4=
EXTT5=
EXTT6=
EXTT7=
EXTT8=
EXTT9=
EXTT10=
EXTT11=
PLAYORDER=
